<svg width="1010" height="1001" viewBox="0 0 1010 1001" fill="none" xmlns="http://www.w3.org/2000/svg">
<g opacity="0.5">
<path fill-rule="evenodd" clip-rule="evenodd" d="M385.264 669.192C328.847 646.485 250.767 684.199 219.764 642.282C190.953 603.328 181.652 521.694 185.582 477.279C189.351 434.68 212.383 396.916 237.012 358.396C268.576 309.03 277.173 232.758 348.899 221.85C422.684 210.629 470.525 281.001 531.962 313.539C572.803 335.169 612.632 353.876 648.071 380.297C692.167 413.173 763.733 439.375 763.191 485.929C762.649 532.416 677.01 549.661 645.631 589.799C607.01 639.201 629.02 718.814 560.817 744.791C494.763 769.949 450.537 695.464 385.264 669.192Z" fill="url(#paint0_linear_650_194)" fill-opacity="0.3"/>
<path fill-rule="evenodd" clip-rule="evenodd" d="M472.264 634.06C419.451 619.431 355.585 620.634 321.764 586.967C290.333 555.681 291.507 551.733 287.689 512.711C284.026 475.283 297.92 440.311 313.082 404.536C332.512 358.688 327.565 291.507 388.226 275.479C450.629 258.991 503.745 315.894 562.533 338.624C601.61 353.734 639.332 366.392 674.49 386.164C718.235 410.767 784.805 427.059 791.921 467.633C799.027 508.152 727.288 530.963 706.513 568.763C680.945 615.286 713.082 682.586 657.943 711.412C604.543 739.328 533.368 650.985 472.264 634.06Z" fill="url(#paint1_linear_650_194)" fill-opacity="0.4"/>
<path fill-rule="evenodd" clip-rule="evenodd" d="M509.764 570.149C465.985 546.706 354.105 550.388 334.264 512.965C315.825 478.187 427.628 486.137 437.264 449.427C446.507 414.218 423.217 414.535 449.264 384.395C482.646 345.769 523.91 387.748 585.264 384.395C648.378 380.945 643 298.094 698.404 311.629C759.967 326.668 672.645 410.738 698.404 435.599C730.455 466.533 873.589 435.072 866.471 473.835C859.362 512.545 785.503 520.067 753.597 551.017C714.327 589.108 721.274 657.235 660.698 673.433C602.033 689.119 560.414 597.273 509.764 570.149Z" fill="url(#paint2_linear_650_194)" fill-opacity="0.6"/>
</g>
<defs>
<linearGradient id="paint0_linear_650_194" x1="739.193" y1="399.451" x2="482.952" y2="762.43" gradientUnits="userSpaceOnUse">
<stop stop-color="#9EE6F7" stop-opacity="0"/>
<stop offset="1" stop-color="#9EE6F7" stop-opacity="0.46"/>
</linearGradient>
<linearGradient id="paint1_linear_650_194" x1="756.934" y1="394.538" x2="580.308" y2="727.098" gradientUnits="userSpaceOnUse">
<stop stop-color="#9EE6F7" stop-opacity="0"/>
<stop offset="1" stop-color="#9EE6F7" stop-opacity="0.46"/>
</linearGradient>
<linearGradient id="paint2_linear_650_194" x1="858.85" y1="399.826" x2="597.716" y2="685.969" gradientUnits="userSpaceOnUse">
<stop stop-color="#005AE2"/>
<stop offset="1" stop-color="#73E6FF" stop-opacity="0.38"/>
</linearGradient>
</defs>
</svg>
