<svg width="1739" height="1746" viewBox="0 0 1739 1746" fill="none" xmlns="http://www.w3.org/2000/svg">
<g opacity="0.5">
<path fill-rule="evenodd" clip-rule="evenodd" d="M803.203 1346.81C746.786 1285.81 668.706 1387.12 637.703 1274.52C608.892 1169.88 599.591 950.596 603.521 831.29C607.29 716.857 630.322 615.416 654.951 511.942C686.514 379.336 695.112 174.453 766.838 145.151C840.622 115.008 888.463 304.043 949.901 391.449C990.742 449.551 1030.57 499.803 1066.01 570.775C1110.11 659.086 1181.67 729.471 1181.13 854.523C1180.59 979.399 1094.95 1025.72 1063.57 1133.54C1024.95 1266.25 1046.96 1480.1 978.756 1549.88C912.702 1617.46 868.476 1417.38 803.203 1346.81Z" fill="url(#paint0_linear_650_182)" fill-opacity="0.3"/>
<path fill-rule="evenodd" clip-rule="evenodd" d="M890.203 1252.43C837.389 1213.14 773.524 1216.37 739.703 1125.93C708.272 1041.89 709.446 1031.29 705.628 926.466C701.965 825.927 715.859 731.985 731.02 635.884C750.451 512.726 745.503 332.264 806.165 289.209C868.567 244.918 921.684 397.773 980.471 458.83C1019.55 499.42 1057.27 533.421 1092.43 586.534C1136.17 652.621 1202.74 696.387 1209.86 805.378C1216.97 914.219 1145.23 975.495 1124.45 1077.03C1098.88 1202.01 1131.02 1382.79 1075.88 1460.22C1022.48 1535.21 951.307 1297.9 890.203 1252.43Z" fill="url(#paint1_linear_650_182)" fill-opacity="0.4"/>
<path fill-rule="evenodd" clip-rule="evenodd" d="M927.703 1080.76C883.924 1017.78 772.044 1027.67 752.203 927.147C733.764 833.727 845.567 855.082 855.203 756.472C864.446 661.891 841.156 662.744 867.203 581.781C900.585 478.024 941.849 590.789 1003.2 581.781C1066.32 572.513 1060.94 349.957 1116.34 386.314C1177.91 426.714 1090.58 652.543 1116.34 719.325C1148.39 802.421 1291.53 717.91 1284.41 822.037C1277.3 926.02 1203.44 946.226 1171.54 1029.36C1132.27 1131.68 1139.21 1314.69 1078.64 1358.2C1019.97 1400.34 978.352 1153.62 927.703 1080.76Z" fill="url(#paint2_linear_650_182)" fill-opacity="0.6"/>
</g>
<defs>
<linearGradient id="paint0_linear_650_182" x1="1157.13" y1="622.225" x2="554.34" y2="940.102" gradientUnits="userSpaceOnUse">
<stop stop-color="#9EE6F7" stop-opacity="0"/>
<stop offset="1" stop-color="#9EE6F7" stop-opacity="0.46"/>
</linearGradient>
<linearGradient id="paint1_linear_650_182" x1="1174.87" y1="609.029" x2="636.561" y2="986.345" gradientUnits="userSpaceOnUse">
<stop stop-color="#9EE6F7" stop-opacity="0"/>
<stop offset="1" stop-color="#9EE6F7" stop-opacity="0.46"/>
</linearGradient>
<linearGradient id="paint2_linear_650_182" x1="1276.79" y1="623.232" x2="784.094" y2="824.213" gradientUnits="userSpaceOnUse">
<stop stop-color="#005AE2"/>
<stop offset="1" stop-color="#73E6FF" stop-opacity="0.38"/>
</linearGradient>
</defs>
</svg>
