<svg width="1518" height="1860" viewBox="0 0 1518 1860" fill="none" xmlns="http://www.w3.org/2000/svg">
<g opacity="0.7">
<path fill-rule="evenodd" clip-rule="evenodd" d="M412.703 970.27C422.969 843.272 502.248 589.856 545.109 494.216C584.939 405.337 605.266 371.318 662.703 339.775C717.794 309.52 803.451 350.959 860.203 363.87C932.933 380.418 1036.84 284.492 1074.08 411.023C1112.39 541.185 1039.06 693.764 1018 838.922C1004.01 935.417 993.375 1027.42 971.556 1117.88C944.406 1230.42 934.673 1389.24 875.639 1429.09C816.688 1468.88 766.891 1321.51 705.886 1297.21C630.802 1267.3 537.344 1378.98 482.205 1272.37C428.805 1169.11 400.826 1117.2 412.703 970.27Z" fill="url(#paint0_linear_650_178)" fill-opacity="0.3"/>
<path fill-rule="evenodd" clip-rule="evenodd" d="M524.338 1022.57C525.569 909.508 538.941 798.553 570.449 704.81C599.73 617.693 645.002 562.02 693.089 520.508C739.211 480.692 779.017 523.153 829.204 520.508C893.521 517.121 985.791 401.936 1025.89 502.974C1067.13 606.913 1012.55 757.676 1003.03 889.192C996.702 976.616 993.03 1059.31 979.525 1143.39C962.72 1248.01 963.883 1388.64 914.911 1437.77C866.007 1486.84 813.716 1370.73 759.135 1364.5C691.957 1356.84 617.376 1476.92 562.907 1397.6C510.156 1320.78 522.914 1153.39 524.338 1022.57Z" fill="url(#paint1_linear_650_178)" fill-opacity="0.4"/>
<path fill-rule="evenodd" clip-rule="evenodd" d="M623.329 1004.07C638.658 900.405 664.919 804.836 705.747 734.323C743.688 668.794 792.433 640.359 841.995 626.409C889.532 613.03 935.047 633.701 981.668 656.662C1041.41 686.091 1126.84 665.192 1151.14 778.674C1176.13 895.411 1106.87 1006.84 1081.58 1123.32C1064.77 1200.75 1051 1275.16 1027.99 1345.87C999.356 1433.86 982.776 1564.16 931.441 1584.69C880.176 1605.19 846.522 1471.64 796.963 1438.27C735.967 1397.19 652.106 1470.2 611.825 1369.47C572.815 1271.92 605.594 1124 623.329 1004.07Z" fill="url(#paint2_linear_650_178)" fill-opacity="0.6"/>
</g>
<defs>
<linearGradient id="paint0_linear_650_178" x1="983.878" y1="1277.84" x2="431.451" y2="1153.73" gradientUnits="userSpaceOnUse">
<stop stop-color="#9EE6F7" stop-opacity="0"/>
<stop offset="1" stop-color="#9EE6F7" stop-opacity="0.46"/>
</linearGradient>
<linearGradient id="paint1_linear_650_178" x1="995.888" y1="1307.19" x2="521.487" y2="1238.04" gradientUnits="userSpaceOnUse">
<stop stop-color="#9EE6F7" stop-opacity="0"/>
<stop offset="1" stop-color="#9EE6F7" stop-opacity="0.46"/>
</linearGradient>
<linearGradient id="paint2_linear_650_178" x1="1022.52" y1="1505.24" x2="545.339" y2="1359.04" gradientUnits="userSpaceOnUse">
<stop stop-color="#005AE2"/>
<stop offset="1" stop-color="#73E6FF" stop-opacity="0.38"/>
</linearGradient>
</defs>
</svg>
