<svg width="841" height="963" viewBox="0 0 841 963" fill="none" xmlns="http://www.w3.org/2000/svg">
<g opacity="0.8">
<path fill-rule="evenodd" clip-rule="evenodd" d="M409.21 62.9583C456.75 71.9327 553.214 148.612 589.972 190.487C624.132 229.401 637.346 249.375 650.649 306.471C663.408 361.235 650.321 447.28 647.063 504.142C642.886 577.013 681.414 679.912 635.342 718.42C587.948 758.033 529.171 686.275 474.579 666.7C438.289 653.688 403.76 643.994 369.506 623.1C326.884 597.102 267.519 588.983 251.081 530.375C234.667 471.849 288.151 420.577 295.532 359.348C304.616 283.988 260.512 191.698 298.684 135.498C335.653 81.0708 354.208 52.5753 409.21 62.9583Z" fill="url(#paint0_linear_650_186)" fill-opacity="0.3"/>
<path fill-rule="evenodd" clip-rule="evenodd" d="M392.787 175.083C434.896 175.167 476.55 187.408 512.294 217.954C545.511 246.34 567.462 291.031 584.219 338.679C600.293 384.38 585.576 424.602 587.927 474.744C590.94 539.003 636.318 630.07 599.811 671.174C562.255 713.458 504.664 660.428 455.464 652.246C422.758 646.805 391.884 643.973 360.228 631.326C320.839 615.588 268.536 618.177 248.918 569.722C229.328 521.334 271.11 467.884 271.941 413.26C272.964 346.029 226.246 272.694 254.28 217.44C281.43 163.93 344.067 174.986 392.787 175.083Z" fill="url(#paint1_linear_650_186)" fill-opacity="0.4"/>
<path opacity="0.4" fill-rule="evenodd" clip-rule="evenodd" d="M402.371 273.85C441.365 288.121 477.644 313.403 504.997 353.501C530.416 390.764 542.326 439.202 548.867 488.605C555.141 535.988 548.688 581.695 541.414 628.532C532.09 688.554 542.195 773.741 500.626 799.179C457.865 825.347 414.511 757.238 370.477 733.138C341.205 717.118 313.138 704.111 286.197 681.826C252.675 654.096 203.736 638.844 194.698 587.736C185.672 536.698 234.453 501.702 245.521 451.822C259.144 390.433 229.691 307.343 266.078 266.055C301.317 226.071 357.257 257.337 402.371 273.85Z" fill="url(#paint2_linear_650_186)" fill-opacity="0.6"/>
</g>
<defs>
<linearGradient id="paint0_linear_650_186" x1="310.313" y1="637.041" x2="555.351" y2="204.829" gradientUnits="userSpaceOnUse">
<stop stop-color="#9EE6F7" stop-opacity="0"/>
<stop offset="1" stop-color="#9EE6F7" stop-opacity="0.46"/>
</linearGradient>
<linearGradient id="paint1_linear_650_186" x1="299.717" y1="649.344" x2="452.695" y2="224.942" gradientUnits="userSpaceOnUse">
<stop stop-color="#9EE6F7" stop-opacity="0"/>
<stop offset="1" stop-color="#9EE6F7" stop-opacity="0.46"/>
</linearGradient>
<linearGradient id="paint2_linear_650_186" x1="226.745" y1="677.974" x2="474.282" y2="359.917" gradientUnits="userSpaceOnUse">
<stop stop-color="#005AE2"/>
<stop offset="1" stop-color="#73E6FF" stop-opacity="0.38"/>
</linearGradient>
</defs>
</svg>
