<svg width="76" height="36" viewBox="0 0 76 36" fill="none" xmlns="http://www.w3.org/2000/svg">
<path d="M47.9999 1.3335L57.9999 1.3335C60.1886 1.3335 62.3559 1.76459 64.378 2.60217C66.4001 3.43975 68.2374 4.66741 69.785 6.21505C71.3327 7.76269 72.5603 9.60001 73.3979 11.6221C74.2355 13.6442 74.6666 15.8115 74.6666 18.0002C74.6666 20.1889 74.2355 22.3561 73.3979 24.3782C72.5603 26.4003 71.3327 28.2376 69.785 29.7853C68.2374 31.3329 66.4001 32.5606 64.378 33.3982C62.3559 34.2357 60.1886 34.6668 57.9999 34.6668H47.9999M27.9999 34.6668H17.9999C15.8112 34.6668 13.644 34.2357 11.6219 33.3982C9.59977 32.5606 7.76245 31.3329 6.21481 29.7853C3.0892 26.6597 1.33325 22.4204 1.33325 18.0002C1.33325 13.5799 3.0892 9.34066 6.21481 6.21505C9.34041 3.08944 13.5796 1.3335 17.9999 1.3335L27.9999 1.3335" stroke="#141414" stroke-width="2" stroke-linecap="round" stroke-linejoin="round"/>
<path d="M24.6665 18L51.3332 18" stroke="#141414" stroke-width="2" stroke-linecap="round" stroke-linejoin="round"/>
</svg>
