<svg width="17" height="17" viewBox="0 0 17 17" fill="none" xmlns="http://www.w3.org/2000/svg">
<path d="M4.95887 3.81594C4.93991 4.04135 4.61191 4.09835 4.50642 3.89456L3.93834 2.79742C3.9016 2.72633 3.82675 2.67883 3.74209 2.67268L2.43485 2.57785C2.192 2.56025 2.13061 2.25577 2.35016 2.15782L3.53196 1.63049C3.60849 1.59633 3.65977 1.52691 3.66632 1.44829L3.76849 0.234696C3.78745 0.00928524 4.11545 -0.0477088 4.22095 0.156077L4.78902 1.25321C4.82576 1.3243 4.90052 1.37182 4.98527 1.37796L6.29252 1.47279C6.53536 1.49039 6.59675 1.79487 6.3772 1.89282L5.1954 2.42015C5.11878 2.45432 5.06759 2.52373 5.06104 2.60234L4.95887 3.81594Z" fill="white"/>
<path d="M1.20605 4.6442C1.1744 4.75336 1.00755 4.75336 0.975899 4.6442L0.805428 4.05649C0.794416 4.01841 0.762334 3.98867 0.721338 3.97842L0.0882699 3.82018C-0.0293338 3.79079 -0.0293338 3.63591 0.0882699 3.60652L0.721338 3.44828C0.762334 3.43802 0.794416 3.40828 0.805428 3.37021L0.975899 2.78249C1.00755 2.67333 1.1744 2.67333 1.20605 2.78249L1.37652 3.37021C1.38754 3.40828 1.41957 3.43802 1.46061 3.44828L2.09368 3.60652C2.21129 3.63591 2.21129 3.79079 2.09368 3.82018L1.46061 3.97842C1.41957 3.98867 1.38754 4.01841 1.37652 4.05649L1.20605 4.6442Z" fill="white"/>
<path d="M3.38769 8.02018C3.35604 8.12934 3.18919 8.12934 3.15754 8.02018L2.98707 7.43246C2.97606 7.39439 2.94398 7.36465 2.90298 7.35439L2.26991 7.19615C2.15231 7.16676 2.15231 7.01188 2.26991 6.98249L2.90298 6.82425C2.94398 6.814 2.97606 6.78426 2.98707 6.74618L3.15754 6.15847C3.18919 6.0493 3.35604 6.0493 3.38769 6.15847L3.55816 6.74618C3.56918 6.78426 3.60121 6.814 3.64226 6.82425L4.27532 6.98249C4.39293 7.01188 4.39293 7.16676 4.27532 7.19615L3.64226 7.35439C3.60121 7.36465 3.56918 7.39439 3.55816 7.43246L3.38769 8.02018Z" fill="white"/>
<path d="M1.53133 6.69688C1.51023 6.76966 1.399 6.76966 1.37789 6.69688L1.26425 6.30507C1.25691 6.27969 1.23552 6.25986 1.20819 6.25303L0.786141 6.14753C0.707739 6.12794 0.707739 6.02469 0.786141 6.00509L1.20819 5.8996C1.23552 5.89276 1.25691 5.87294 1.26425 5.84755L1.37789 5.45574C1.399 5.38297 1.51023 5.38297 1.53133 5.45574L1.64498 5.84755C1.65232 5.87294 1.67367 5.89276 1.70104 5.8996L2.12308 6.00509C2.20149 6.02469 2.20149 6.12794 2.12308 6.14753L1.70104 6.25303C1.67367 6.25986 1.65232 6.27969 1.64498 6.30507L1.53133 6.69688Z" fill="white"/>
<path d="M6.62215 5.34679C6.60105 5.41956 6.48982 5.41956 6.46871 5.34679L6.35507 4.95498C6.34773 4.92959 6.32634 4.90976 6.29901 4.90293L5.87696 4.79744C5.79856 4.77784 5.79856 4.67459 5.87696 4.655L6.29901 4.5495C6.32634 4.54267 6.34773 4.52284 6.35507 4.49746L6.46871 4.10564C6.48982 4.03287 6.60105 4.03287 6.62215 4.10564L6.7358 4.49746C6.74314 4.52284 6.7645 4.54267 6.79186 4.5495L7.2139 4.655C7.29231 4.67459 7.29231 4.77784 7.2139 4.79744L6.79186 4.90293C6.7645 4.90976 6.74314 4.92959 6.7358 4.95498L6.62215 5.34679Z" fill="white"/>
<path d="M13.8182 13.5029L13.0909 14.1781M3.65777 4.54216L15.4624 14.5876C15.7555 14.837 15.7654 15.2628 15.4843 15.5238V15.5238C15.2043 15.7837 14.7496 15.7776 14.4805 15.5079C10.4047 11.423 3.22842 4.20735 3.65777 4.54216Z" stroke="white"/>
</svg>
